<svg xmlns="http://www.w3.org/2000/svg" width="66" height="71" viewBox="0 0 66 71" fill="none"><g filter="url(#filter0_f)"><circle cx="33" cy="38" r="13" fill="#392E66"></circle></g><circle cx="33" cy="25" r="25" fill="url(#paint0_linear)"></circle><path d="M41.6094 24.1573C41.9637 23.7969 42.0887 23.2679 41.9359 22.7762C41.7827 22.2845 41.3837 21.9335 40.8936 21.859L36.5353 21.1981C36.3496 21.1698 36.1893 21.0483 36.1064 20.8726L34.1579 16.7509C33.9391 16.2878 33.495 16 33.0002 16C32.5057 16 32.0616 16.2878 31.8428 16.7509L29.894 20.873C29.8111 21.0487 29.6504 21.1702 29.4647 21.1984L25.1064 21.8594C24.6166 21.9335 24.2173 22.2849 24.0641 22.7766C23.9113 23.2683 24.0363 23.7973 24.3906 24.1577L27.544 27.366C27.6785 27.5029 27.7401 27.7 27.7084 27.8927L26.9644 32.4229C26.8985 32.8217 26.9987 33.2096 27.2459 33.5154C27.6302 33.9921 28.3009 34.1373 28.8372 33.8431L32.7349 31.704C32.8978 31.6148 33.1029 31.6156 33.2655 31.704L37.1635 33.8431C37.3531 33.9473 37.5553 34 37.764 34C38.1449 34 38.5061 33.8232 38.7544 33.5154C39.002 33.2096 39.1019 32.821 39.0359 32.4229L38.2916 27.8927C38.2599 27.6997 38.3215 27.5029 38.456 27.366L41.6094 24.1573Z" fill="white"></path><defs><filter id="filter0_f" x="0" y="5" width="66" height="66" filterUnits="userSpaceOnUse" color-interpolation-filters="sRGB"><feGaussianBlur stdDeviation="10"></feGaussianBlur></filter><linearGradient id="paint0_linear" x1="33" y1="0" x2="33" y2="50" gradientUnits="userSpaceOnUse"><stop stop-color="#4E3D95"></stop><stop offset="1" stop-color="#3A2E60"></stop></linearGradient></defs></svg>