<svg xmlns="http://www.w3.org/2000/svg" width="66" height="71" viewBox="0 0 66 71" fill="none"><g filter="url(#filter0_f)"><circle cx="33" cy="38" r="13" fill="#392E66"></circle></g><circle cx="33" cy="25" r="25" fill="url(#paint0_linear)"></circle><g clip-path="url(#clip0)"><path d="M38.625 22.5H38V20C38 17.2425 35.7575 15 33 15C30.2425 15 28 17.2425 28 20V22.5H27.375C26.3417 22.5 25.5 23.3408 25.5 24.375V33.125C25.5 34.1592 26.3417 35 27.375 35H38.625C39.6583 35 40.5 34.1592 40.5 33.125V24.375C40.5 23.3408 39.6583 22.5 38.625 22.5ZM29.6667 20C29.6667 18.1617 31.1617 16.6667 33 16.6667C34.8383 16.6667 36.3333 18.1617 36.3333 20V22.5H29.6667V20Z" fill="white"></path></g><defs><filter id="filter0_f" x="0" y="5" width="66" height="66" filterUnits="userSpaceOnUse" color-interpolation-filters="sRGB"><feGaussianBlur stdDeviation="10"></feGaussianBlur></filter><linearGradient id="paint0_linear" x1="33" y1="0" x2="33" y2="50" gradientUnits="userSpaceOnUse"><stop stop-color="#4E3D95"></stop><stop offset="1" stop-color="#3A2E60"></stop></linearGradient><clipPath id="clip0"><rect width="20" height="20" fill="white" transform="translate(23 15)"></rect></clipPath></defs></svg>